<svg width="26" height="20" viewBox="0 0 26 20" fill="none" xmlns="http://www.w3.org/2000/svg">
<path d="M22.0101 1.86639C20.3526 1.11889 18.576 0.566386 16.718 0.252219C16.7015 0.249043 16.6844 0.25109 16.669 0.258077C16.6537 0.265065 16.6409 0.276647 16.6325 0.291219C16.4049 0.690969 16.1514 1.21205 15.9738 1.62372C14.0033 1.32931 12 1.32931 10.0295 1.62372C9.83165 1.16749 9.60849 0.722629 9.36112 0.291219C9.35273 0.276467 9.34005 0.264623 9.32475 0.257268C9.30946 0.249912 9.29229 0.247395 9.27553 0.250053C7.4187 0.564219 5.64203 1.11672 3.98345 1.8653C3.96918 1.87129 3.95708 1.88149 3.94878 1.89455C0.577449 6.8508 -0.346634 11.6846 0.107282 16.4578C0.108545 16.4695 0.112174 16.4808 0.117948 16.491C0.123721 16.5013 0.131519 16.5103 0.140866 16.5174C2.10862 17.95 4.3034 19.0414 6.63328 19.7457C6.64952 19.7507 6.6669 19.7507 6.68313 19.7457C6.69936 19.7407 6.71371 19.7309 6.72428 19.7176C7.22564 19.047 7.66992 18.3357 8.05245 17.591C8.05776 17.5808 8.06082 17.5696 8.06142 17.5581C8.06203 17.5466 8.06016 17.5352 8.05595 17.5245C8.05173 17.5138 8.04528 17.5042 8.03701 17.4962C8.02874 17.4882 8.01886 17.4821 8.00803 17.4783C7.3082 17.2148 6.63012 16.8967 5.98003 16.5271C5.96835 16.5205 5.95851 16.511 5.95139 16.4996C5.94426 16.4882 5.94009 16.4752 5.93923 16.4618C5.93837 16.4483 5.94085 16.4349 5.94646 16.4227C5.95207 16.4105 5.96063 16.3998 5.97137 16.3917C6.10787 16.291 6.24437 16.1859 6.37437 16.0808C6.38607 16.0714 6.40016 16.0653 6.41508 16.0634C6.43 16.0615 6.44516 16.0638 6.45887 16.07C10.7131 17.981 15.3205 17.981 19.525 16.07C19.5387 16.0634 19.554 16.0608 19.5691 16.0626C19.5843 16.0643 19.5986 16.0702 19.6105 16.0797C19.7405 16.1859 19.876 16.291 20.0135 16.3917C20.0244 16.3997 20.0331 16.4102 20.0389 16.4223C20.0446 16.4344 20.0473 16.4478 20.0467 16.4612C20.0461 16.4746 20.0421 16.4876 20.0352 16.4991C20.0282 16.5107 20.0186 16.5203 20.007 16.5271C19.3592 16.8998 18.6854 17.2151 17.9779 17.4772C17.9671 17.4812 17.9572 17.4874 17.9489 17.4955C17.9406 17.5035 17.9342 17.5133 17.93 17.524C17.9258 17.5348 17.9239 17.5463 17.9245 17.5579C17.9251 17.5694 17.9282 17.5807 17.9335 17.591C18.3235 18.3352 18.7699 19.0437 19.2606 19.7165C19.2708 19.7303 19.285 19.7406 19.3013 19.746C19.3176 19.7515 19.3352 19.7517 19.3516 19.7468C21.6855 19.0444 23.8839 17.9526 25.8538 16.5174C25.8634 16.5107 25.8715 16.502 25.8774 16.4919C25.8834 16.4818 25.8872 16.4705 25.8884 16.4589C26.4301 10.9404 24.9806 6.14555 22.0437 1.89672C22.0365 1.88291 22.0246 1.87215 22.0101 1.86639ZM8.68837 13.5512C7.40787 13.5512 6.35162 12.3931 6.35162 10.9729C6.35162 9.55155 7.38728 8.39455 8.68837 8.39455C9.9992 8.39455 11.0457 9.5613 11.0251 10.9729C11.0251 12.3942 9.98945 13.5512 8.68837 13.5512ZM17.3279 13.5512C16.0464 13.5512 14.9912 12.3931 14.9912 10.9729C14.9912 9.55155 16.0258 8.39455 17.3279 8.39455C18.6388 8.39455 19.6853 9.5613 19.6647 10.9729C19.6647 12.3942 18.6399 13.5512 17.3279 13.5512Z" fill="white"/>
</svg>
