<svg width="26" height="22" viewBox="0 0 26 22" fill="none" xmlns="http://www.w3.org/2000/svg">
<path d="M8.17934 21.5625C17.9882 21.5625 23.3548 13.434 23.3548 6.38708C23.3548 6.15856 23.3497 5.92497 23.3396 5.69645C24.3835 4.94148 25.2845 4.00634 26 2.93497C25.0277 3.36754 23.9954 3.65006 22.9384 3.77286C24.0514 3.10571 24.8847 2.05766 25.284 0.822975C24.2369 1.4435 23.0919 1.88122 21.8979 2.11739C21.0934 1.26259 20.0297 0.696604 18.8713 0.50695C17.7129 0.317296 16.5243 0.514532 15.4892 1.06817C14.4541 1.6218 13.6303 2.50099 13.145 3.56982C12.6597 4.63864 12.54 5.83756 12.8045 6.98122C10.6844 6.87483 8.61026 6.32407 6.71665 5.36467C4.82303 4.40526 3.15217 3.05862 1.81238 1.41204C1.13143 2.58607 0.923061 3.97534 1.22962 5.29749C1.53617 6.61964 2.33465 7.77546 3.46277 8.53005C2.61585 8.50316 1.78747 8.27513 1.04609 7.86481V7.93083C1.04534 9.16289 1.47127 10.3572 2.2515 11.3107C3.03173 12.2643 4.1181 12.9182 5.32594 13.1613C4.54139 13.3759 3.71798 13.4072 2.91941 13.2527C3.26024 14.3123 3.92337 15.239 4.81625 15.9036C5.70913 16.5681 6.78721 16.9374 7.90004 16.9597C6.01079 18.4438 3.67702 19.2487 1.27461 19.2449C0.848561 19.2442 0.422932 19.2181 0 19.1667C2.44059 20.7325 5.27966 21.5641 8.17934 21.5625Z" fill="white"/>
</svg>
